<?xml version="1.0" encoding="utf-8"?>
<!-- Generator: Adobe Illustrator 24.2.1, SVG Export Plug-In . SVG Version: 6.00 Build 0)  -->
<svg version="1.1" id="Layer_1" xmlns="http://www.w3.org/2000/svg" xmlns:xlink="http://www.w3.org/1999/xlink" x="0px" y="0px"
	 viewBox="0 0 1920 1080" style="enable-background:new 0 0 1920 1080;" xml:space="preserve">
<style type="text/css">
	.st0{opacity:0.1;}
	.st1{fill-rule:evenodd;clip-rule:evenodd;fill:#FFFFFF;}
	.st2{opacity:0.4;fill-rule:evenodd;clip-rule:evenodd;fill:#FFFFFF;enable-background:new    ;}
	.st3{opacity:0.6;fill-rule:evenodd;clip-rule:evenodd;fill:#FFFFFF;enable-background:new    ;}
	.st4{opacity:0.3;fill-rule:evenodd;clip-rule:evenodd;fill:#FFFFFF;enable-background:new    ;}
	.st5{opacity:0.2;fill-rule:evenodd;clip-rule:evenodd;fill:#FFFFFF;enable-background:new    ;}
	.st6{opacity:0.9;fill-rule:evenodd;clip-rule:evenodd;fill:#FFFFFF;enable-background:new    ;}
	.st7{opacity:0.7;fill-rule:evenodd;clip-rule:evenodd;fill:#FFFFFF;enable-background:new    ;}
	.st8{opacity:0.5;fill-rule:evenodd;clip-rule:evenodd;fill:#FFFFFF;enable-background:new    ;}
	.st9{opacity:0.15;}
	.st10{opacity:0.6;}
	.st11{opacity:0.8;fill-rule:evenodd;clip-rule:evenodd;fill:#FFFFFF;enable-background:new    ;}
	.st12{opacity:0.8;fill-rule:evenodd;clip-rule:evenodd;fill:#FFFFFF;}
	.st13{opacity:0.6;fill-rule:evenodd;clip-rule:evenodd;fill:#FFFFFF;}
	.st14{opacity:0.95;fill-rule:evenodd;clip-rule:evenodd;fill:#FFFFFF;}
</style>
<g id="L3-mosaic" class="st9">
	<g id="Developers-Copy-2">
		
			<g id="Mosaic_1_" transform="translate(948.000000, 550.666667) scale(-1, 1) translate(-948.000000, -550.666667) translate(-24.000000, -5.333333)" class="st10">
			<polygon id="Fill-1_1_" class="st1" points="1841.1,647.9 1933.1,647.9 1933.1,555.9 1841.1,555.9 			"/>
			<polygon id="Fill-1-Copy-14_1_" class="st3" points="1174.4,425.3 1233.1,425.3 1233.1,366.6 1174.4,366.6 			"/>
			<polygon id="Fill-1-Copy-8_2_" class="st1" points="1822.4,354.6 1857.1,354.6 1857.1,319.9 1822.4,319.9 			"/>
			<polygon id="Fill-1-Copy-83_2_" class="st1" points="1857.1,1030.3 1874.4,1030.3 1874.4,1012.9 1857.1,1012.9 			"/>
			<polygon id="Fill-1-Copy-66_2_" class="st1" points="1841.1,124.3 1858.4,124.3 1858.4,106.9 1841.1,106.9 			"/>
			<polygon id="Fill-1-Copy-62_2_" class="st1" points="1458.1,95.3 1475.4,95.3 1475.4,77.9 1458.1,77.9 			"/>
			<polygon id="Fill-1-Copy-30_2_" class="st6" points="1857.1,366.6 1869.1,366.6 1869.1,354.6 1857.1,354.6 			"/>
			<polygon id="Fill-1-Copy-17_2_" class="st7" points="1505.1,503.9 1526.4,503.9 1526.4,482.6 1505.1,482.6 			"/>
			<polygon id="Fill-3_2_" class="st1" points="1791.8,569.3 1805.1,569.3 1805.1,555.9 1791.8,555.9 			"/>
			<polygon id="Fill-1-Copy_1_" class="st1" points="-10.9,856.9 81.1,856.9 81.1,764.9 -10.9,764.9 			"/>
			<polygon id="Fill-1-Copy-21_2_" class="st13" points="531.1,320.3 612.4,320.3 612.4,238.9 531.1,238.9 			"/>
			<polygon id="Fill-1-Copy-53_2_" class="st4" points="81.1,923.6 147.8,923.6 147.8,856.9 81.1,856.9 			"/>
			<polygon id="Fill-1-Copy-19_2_" class="st5" points="827.8,662.6 866.4,662.6 866.4,623.9 827.8,623.9 			"/>
			<polygon id="Fill-1-Copy-68_2_" class="st8" points="1210.8,1034.6 1236.8,1034.6 1236.8,1008.6 1210.8,1008.6 			"/>
			<polygon id="Fill-1-Copy-79_2_" class="st5" points="1104.1,917.9 1265.1,917.9 1265.1,756.9 1104.1,756.9 			"/>
			<polygon id="Fill-1-Copy-20_2_" class="st8" points="810.4,623.9 826.4,623.9 826.4,607.9 810.4,607.9 			"/>
			<polygon id="Fill-1-Copy-81_2_" class="st1" points="1065.1,955.9 1103.1,955.9 1103.1,917.9 1065.1,917.9 			"/>
			<polygon id="Fill-1-Copy-85_1_" class="st14" points="977.1,529.9 1015.1,529.9 1015.1,491.9 977.1,491.9 			"/>
			<polygon id="Fill-1-Copy-85_2_" class="st13" points="1352.3,635.6 1390.3,635.6 1390.3,597.6 1352.3,597.6 			"/>
			<polygon id="Fill-1-Copy-70_2_" class="st1" points="572.1,941.9 588.1,941.9 588.1,925.9 572.1,925.9 			"/>
			<polygon id="Fill-1-Copy-82_2_" class="st1" points="876.1,348.9 888.1,348.9 888.1,336.9 876.1,336.9 			"/>
			<polygon id="Fill-1-Copy-78_2_" class="st1" points="1526.1,832.9 1538.1,832.9 1538.1,820.9 1526.1,820.9 			"/>
			<polygon id="Fill-1-Copy-59_2_" class="st1" points="321.1,912.9 333.1,912.9 333.1,900.9 321.1,900.9 			"/>
			<polygon id="Fill-1-Copy-9_2_" class="st1" points="115.8,421.3 131.8,421.3 131.8,405.3 115.8,405.3 			"/>
			<polygon id="Fill-1-Copy-9_3_" class="st12" points="644.2,496.6 660.2,496.6 660.2,480.6 644.2,480.6 			"/>
			<polygon id="Fill-1-Copy-10_2_" class="st4" points="123.8,602.6 171.8,602.6 171.8,554.6 123.8,554.6 			"/>
			<polygon id="Fill-1-Copy-56_2_" class="st2" points="1668.1,941.9 1716.1,941.9 1716.1,893.9 1668.1,893.9 			"/>
			<polygon id="Fill-1-Copy-72_2_" class="st1" points="245.1,1104.9 293.1,1104.9 293.1,1056.9 245.1,1056.9 			"/>
			<polygon id="Fill-1-Copy-11_2_" class="st4" points="171.8,554.6 187.8,554.6 187.8,538.6 171.8,538.6 			"/>
			<polygon id="Fill-1-Copy-57_2_" class="st1" points="1716.1,893.9 1732.1,893.9 1732.1,877.9 1716.1,877.9 			"/>
			<polygon id="Fill-1-Copy-3_1_" class="st4" points="397.1,678.6 537.1,678.6 537.1,538.6 397.1,538.6 			"/>
			<polygon id="Fill-1-Copy-16_2_" class="st1" points="399.8,406.6 434.4,406.6 434.4,371.9 399.8,371.9 			"/>
			<polygon id="Fill-1-Copy-75_2_" class="st1" points="770.1,71.9 810.1,71.9 810.1,31.9 770.1,31.9 			"/>
			<polygon id="Fill-1-Copy-74_2_" class="st1" points="1258.1,19.9 1284.1,19.9 1284.1,-6.1 1258.1,-6.1 			"/>
			<polygon id="Fill-1-Copy-80_2_" class="st5" points="443.1,190.9 467.1,190.9 467.1,166.9 443.1,166.9 			"/>
			<polygon id="Fill-1-Copy-73_2_" class="st1" points="1299.1,149.9 1311.1,149.9 1311.1,137.9 1299.1,137.9 			"/>
			<polygon id="Fill-1-Copy-76_2_" class="st1" points="810.1,83.9 822.1,83.9 822.1,71.9 810.1,71.9 			"/>
			<polygon id="Fill-1-Copy-55_2_" class="st1" points="59.1,166.9 94.1,166.9 94.1,131.9 59.1,131.9 			"/>
			<polygon id="Fill-1-Copy-6_2_" class="st1" points="351.8,549.3 362.4,549.3 362.4,538.6 351.8,538.6 			"/>
		</g>
	</g>
</g>
</svg>
