<?xml version="1.0" encoding="utf-8"?>
<!-- Generator: Adobe Illustrator 24.2.1, SVG Export Plug-In . SVG Version: 6.00 Build 0)  -->
<svg version="1.1" id="Layer_1" xmlns="http://www.w3.org/2000/svg" xmlns:xlink="http://www.w3.org/1999/xlink" x="0px" y="0px"
	 viewBox="0 0 1920 1080" style="enable-background:new 0 0 1920 1080;" xml:space="preserve">
<style type="text/css">
	.st0{opacity:0.1;}
	.st1{fill-rule:evenodd;clip-rule:evenodd;fill:#FFFFFF;}
	.st2{opacity:0.4;fill-rule:evenodd;clip-rule:evenodd;fill:#FFFFFF;enable-background:new    ;}
	.st3{opacity:0.6;fill-rule:evenodd;clip-rule:evenodd;fill:#FFFFFF;enable-background:new    ;}
	.st4{opacity:0.3;fill-rule:evenodd;clip-rule:evenodd;fill:#FFFFFF;enable-background:new    ;}
	.st5{opacity:0.2;fill-rule:evenodd;clip-rule:evenodd;fill:#FFFFFF;enable-background:new    ;}
	.st6{opacity:0.9;fill-rule:evenodd;clip-rule:evenodd;fill:#FFFFFF;enable-background:new    ;}
	.st7{opacity:0.7;fill-rule:evenodd;clip-rule:evenodd;fill:#FFFFFF;enable-background:new    ;}
	.st8{opacity:0.5;fill-rule:evenodd;clip-rule:evenodd;fill:#FFFFFF;enable-background:new    ;}
	.st9{opacity:0.15;}
	.st10{opacity:0.6;}
	.st11{opacity:0.8;fill-rule:evenodd;clip-rule:evenodd;fill:#FFFFFF;enable-background:new    ;}
	.st12{opacity:0.8;fill-rule:evenodd;clip-rule:evenodd;fill:#FFFFFF;}
	.st13{opacity:0.6;fill-rule:evenodd;clip-rule:evenodd;fill:#FFFFFF;}
	.st14{opacity:0.95;fill-rule:evenodd;clip-rule:evenodd;fill:#FFFFFF;}
</style>
<g id="L2-mosaic" class="st9">
	<g id="Developers-Copy" transform="translate(960.000000, 540.000000) scale(-1, -1) translate(-960.000000, -540.000000) ">
		<g id="Mosaic" transform="translate(22.000000, -117.333333)" class="st10">
			<polygon id="Fill-1-Copy-61_1_" class="st2" points="1462,278.8 1517,278.8 1517,223.8 1462,223.8 			"/>
			<polygon id="Fill-1-Copy-2_1_" class="st1" points="1684.7,583.5 1746,583.5 1746,522.2 1684.7,522.2 			"/>
			<polygon id="Fill-1-Copy-13_1_" class="st11" points="1468.7,412.8 1510,412.8 1510,371.5 1468.7,371.5 			"/>
			<polygon id="Fill-1-Copy-23_1_" class="st4" points="1134,495.5 1158,495.5 1158,471.5 1134,471.5 			"/>
			<polygon id="Fill-1-Copy-84_1_" class="st4" points="939,620.8 963,620.8 963,596.8 939,596.8 			"/>
			<polygon id="Fill-1-Copy-8_1_" class="st1" points="1807.4,483.5 1842,483.5 1842,448.8 1807.4,448.8 			"/>
			<polygon id="Fill-1-Copy-83_1_" class="st1" points="1842,1159.2 1859.4,1159.2 1859.4,1141.8 1842,1141.8 			"/>
			<polygon id="Fill-1-Copy-66_1_" class="st1" points="1826,253.2 1843.4,253.2 1843.4,235.8 1826,235.8 			"/>
			<polygon id="Fill-1-Copy-62_1_" class="st1" points="1443,224.2 1460.4,224.2 1460.4,206.8 1443,206.8 			"/>
			<polygon id="Fill-1-Copy-30_1_" class="st6" points="1842,495.5 1854,495.5 1854,483.5 1842,483.5 			"/>
			<polygon id="Fill-1-Copy-77_1_" class="st1" points="1490,947.2 1511.4,947.2 1511.4,925.8 1490,925.8 			"/>
			<polygon id="Fill-1-Copy-17_1_" class="st7" points="1490,632.8 1511.4,632.8 1511.4,611.5 1490,611.5 			"/>
			<polygon id="Fill-1-Copy-17_3_" class="st7" points="1310.4,860.1 1331.7,860.1 1331.7,838.7 1310.4,838.7 			"/>
			<polygon id="Fill-1-Copy-17_4_" class="st4" points="1302.8,838.6 1310.2,838.6 1310.2,831.2 1302.8,831.2 			"/>
			<polygon id="Fill-2_1_" class="st1" points="1873.3,689.8 1907.9,689.8 1907.9,655.1 1873.3,655.1 			"/>
			<polygon id="Fill-3_1_" class="st1" points="1859.9,703.1 1873.3,703.1 1873.3,689.8 1859.9,689.8 			"/>
			<polygon id="Fill-1-Copy-4_1_" class="st1" points="66,534.2 100.7,534.2 100.7,499.5 66,499.5 			"/>
			<polygon id="Fill-1-Copy-15_1_" class="st4" points="117,192.2 298.4,192.2 298.4,10.8 117,10.8 			"/>
			<polygon id="Fill-1-Copy-21_1_" class="st1" points="516,415.8 564,415.8 564,367.8 516,367.8 			"/>
			<polygon id="Fill-1-Copy-54_1_" class="st1" points="298,235.8 342,235.8 342,191.8 298,191.8 			"/>
			<polygon id="Fill-1-Copy-60_1_" class="st1" points="1113,307.8 1179,307.8 1179,241.8 1113,241.8 			"/>
			<polygon id="Fill-1-Copy-18_1_" class="st4" points="419.4,819.8 486,819.8 486,753.2 419.4,753.2 			"/>
			<polygon id="Fill-1-Copy-18_2_" class="st4" points="654.5,542.4 673.1,542.4 673.1,523.8 654.5,523.8 			"/>
			<polygon id="Fill-1-Copy-63_1_" class="st4" points="1003.7,459.5 1047.7,459.5 1047.7,415.5 1003.7,415.5 			"/>
			<polygon id="Fill-1-Copy-53_1_" class="st4" points="66,1052.5 132.7,1052.5 132.7,985.8 66,985.8 			"/>
			<polygon id="Fill-1-Copy-19_1_" class="st3" points="812.7,791.5 851.4,791.5 851.4,752.8 812.7,752.8 			"/>
			<polygon id="Fill-1-Copy-68_1_" class="st8" points="1195.7,1163.5 1221.7,1163.5 1221.7,1137.5 1195.7,1137.5 			"/>
			<polygon id="Fill-1-Copy-22_1_" class="st8" points="1232.7,721.8 1306,721.8 1306,648.5 1232.7,648.5 			"/>
			<polygon id="Fill-1-Copy-79_1_" class="st5" points="1089,1046.8 1186,1046.8 1186,949.8 1089,949.8 			"/>
			<polygon id="Fill-1-Copy-20_1_" class="st8" points="795.4,752.8 811.4,752.8 811.4,736.8 795.4,736.8 			"/>
			<polygon id="Fill-1-Copy-65_1_" class="st1" points="694,873.8 710,873.8 710,857.8 694,857.8 			"/>
			<polygon id="Fill-1-Copy-86_1_" class="st1" points="1134,648.8 1146,648.8 1146,636.8 1134,636.8 			"/>
			<polygon id="Fill-1-Copy-81_1_" class="st1" points="1050,1084.8 1088,1084.8 1088,1046.8 1050,1046.8 			"/>
			<polygon id="Fill-1-Copy-70_1_" class="st1" points="557,1070.8 573,1070.8 573,1054.8 557,1054.8 			"/>
			<polygon id="Fill-1-Copy-71_1_" class="st1" points="334,1124.8 350,1124.8 350,1108.8 334,1108.8 			"/>
			<polygon id="Fill-1-Copy-82_1_" class="st1" points="861,477.8 873,477.8 873,465.8 861,465.8 			"/>
			<polygon id="Fill-1-Copy-78_1_" class="st1" points="1511,961.8 1523,961.8 1523,949.8 1511,949.8 			"/>
			<polygon id="Fill-1-Copy-77_2_" class="st12" points="1624.1,754.3 1645.5,754.3 1645.5,733 1624.1,733 			"/>
			<polygon id="Fill-1-Copy-78_3_" class="st12" points="1645.1,769 1657.1,769 1657.1,757 1645.1,757 			"/>
			<polygon id="Fill-1-Copy-59_1_" class="st1" points="306,1041.8 318,1041.8 318,1029.8 306,1029.8 			"/>
			<polygon id="Fill-1-Copy-59_3_" class="st1" points="638.8,717.5 650.8,717.5 650.8,705.5 638.8,705.5 			"/>
			<polygon id="Fill-1-Copy-9_1_" class="st1" points="100.7,550.2 116.7,550.2 116.7,534.2 100.7,534.2 			"/>
			<polygon id="Fill-1-Copy-10_1_" class="st4" points="-26,802.8 22,802.8 22,754.8 -26,754.8 			"/>
			<polygon id="Fill-1-Copy-56_1_" class="st1" points="1653,1070.8 1701,1070.8 1701,1022.8 1653,1022.8 			"/>
			<polygon id="Fill-1-Copy-52_1_" class="st1" points="20,985.8 68,985.8 68,937.8 20,937.8 			"/>
			<polygon id="Fill-1-Copy-72_1_" class="st1" points="230,1233.8 278,1233.8 278,1185.8 230,1185.8 			"/>
			<polygon id="Fill-1-Copy-11_1_" class="st4" points="22,754.8 38,754.8 38,738.8 22,738.8 			"/>
			<polygon id="Fill-1-Copy-57_1_" class="st1" points="1701,1022.8 1717,1022.8 1717,1006.8 1701,1006.8 			"/>
			<polygon id="Fill-1-Copy-27_1_" class="st1" points="238,596.8 254,596.8 254,580.8 238,580.8 			"/>
			<polygon id="Fill-1-Copy-58_1_" class="st4" points="1374,1303.8 1514,1303.8 1514,1163.8 1374,1163.8 			"/>
			<polygon id="Fill-1-Copy-5_1_" class="st1" points="347.4,667.5 382,667.5 382,632.8 347.4,632.8 			"/>
			<polygon id="Fill-1-Copy-16_1_" class="st1" points="384.7,535.5 419.4,535.5 419.4,500.8 384.7,500.8 			"/>
			<polygon id="Fill-1-Copy-75_1_" class="st1" points="755,200.8 795,200.8 795,160.8 755,160.8 			"/>
			<polygon id="Fill-1-Copy-74_1_" class="st1" points="1243,148.8 1269,148.8 1269,122.8 1243,122.8 			"/>
			<polygon id="Fill-1-Copy-67_1_" class="st1" points="606,267.8 630,267.8 630,243.8 606,243.8 			"/>
			<polygon id="Fill-1-Copy-80_1_" class="st5" points="428,319.8 452,319.8 452,295.8 428,295.8 			"/>
			<polygon id="Fill-1-Copy-73_1_" class="st1" points="1284,278.8 1296,278.8 1296,266.8 1284,266.8 			"/>
			<polygon id="Fill-1-Copy-76_1_" class="st1" points="795,212.8 807,212.8 807,200.8 795,200.8 			"/>
			<polygon id="Fill-1-Copy-25_1_" class="st1" points="155.4,580.8 210,580.8 210,526.2 155.4,526.2 			"/>
			<polygon id="Fill-1-Copy-55_1_" class="st1" points="44,295.8 79,295.8 79,260.8 44,260.8 			"/>
			<polygon id="Fill-1-Copy-6_1_" class="st1" points="336.7,678.2 347.4,678.2 347.4,667.5 336.7,667.5 			"/>
		</g>
	</g>
</g>
</svg>
