<?xml version="1.0" encoding="UTF-8"?>
<svg width="80px" height="80px" viewBox="0 0 80 80" version="1.1" xmlns="http://www.w3.org/2000/svg" xmlns:xlink="http://www.w3.org/1999/xlink">
    <title>play icon</title>
    <g id="play-icon" stroke="none" stroke-width="1" fill="none" fill-rule="evenodd">
        <g id="play-icon" transform="translate(1.000000, 0.000000)" fill="#FFFFFF">
            <path d="M18.5053602,73.3955276 C24.4810345,76.9282645 30.9790444,78.6946329 37.9993898,78.6946329 C45.0236332,78.6946329 51.5216431,76.9282645 57.4973174,73.3955276 C63.4729918,69.8588829 68.2129918,65.0834355 71.7251135,59.0691855 C75.2372352,53.0549355 76.991347,46.5131197 76.991347,39.4437382 C76.991347,32.3704487 75.2372352,25.8286329 71.7251135,19.8143829 C68.2129918,13.8001329 63.4729918,9.02468553 57.4973174,5.48804079 C51.5216431,1.95530395 45.0236332,0.185027632 37.9993898,0.185027632 C30.9790444,0.185027632 24.4810345,1.95530395 18.5053602,5.48804079 C12.5296859,9.02468553 7.78578783,13.8001329 4.27756414,19.8143829 C2.76123191,22.409225 1.64249836,25.1173961 0.781034539,27.9076329 L8.74860033,27.9076329 C9.32940625,26.4421724 9.9881727,25.007975 10.7989622,23.6128566 C13.6328273,18.7592513 17.4567911,14.9060671 22.2786497,12.0572118 C27.1005082,9.20835658 32.3394556,7.781975 37.9993898,7.781975 C43.663222,7.781975 48.9021694,9.20835658 53.724028,12.0572118 C58.5419885,14.9060671 62.3698503,18.7592513 65.1998174,23.6128566 C68.0297845,28.4664618 69.4447681,33.7460276 69.4447681,39.4437382 C69.4447681,45.1414487 68.0297845,50.4171066 65.1998174,55.2707118 C62.3698503,60.1243171 58.5419885,63.9775013 53.724028,66.8263566 C48.9021694,69.6752118 43.663222,71.0976855 37.9993898,71.0976855 C32.3394556,71.0976855 27.1005082,69.6752118 22.2786497,66.8263566 C17.4567911,63.9775013 13.6328273,60.1243171 10.7989622,55.2707118 C10.0583372,53.9967382 9.42685691,52.6915013 8.8772352,51.3589092 L0.909669408,51.3589092 C1.76333717,54.0123697 2.83139638,56.5954882 4.27756414,59.0691855 C7.78578783,65.0834355 12.5296859,69.8588829 18.5053602,73.3955276" id="Fill-2"></path>
            <polygon id="Fill-1" points="0.9875 44 8.8875 44 8.8875 36 0.9875 36"></polygon>
            <polygon id="Fill-5" points="47.7690132 39.4417842 28.2048191 51.2983368 28.2048191 27.5852316"></polygon>
        </g>
    </g>
</svg>